<?xml version="1.0" standalone="no"?>
<!DOCTYPE svg PUBLIC "-//W3C//DTD SVG 20010904//EN"
 "http://www.w3.org/TR/2001/REC-SVG-20010904/DTD/svg10.dtd">
<svg version="1.0" xmlns="http://www.w3.org/2000/svg"
 width="100.000000pt" height="141.000000pt" viewBox="0 0 100.000000 141.000000"
 preserveAspectRatio="xMidYMid meet">

<g transform="translate(0.000000,141.000000) scale(0.100000,-0.100000)"
fill="#000000" stroke="none">
<path d="M10 1103 c-1 -45 84 -979 89 -985 3 -3 94 -30 202 -60 l196 -54 199
54 c109 30 201 56 203 58 3 3 90 946 91 987 0 16 -30 17 -490 17 -460 0 -490
-1 -490 -17z m890 -85 c0 -37 -72 -833 -76 -837 -3 -4 -304 -90 -316 -91 -4 0
-8 30 -10 66 l-3 67 -127 35 -127 35 -6 66 c-3 36 -7 82 -8 101 l-2 35 65 0
65 0 5 -50 c5 -53 4 -52 113 -79 l27 -6 0 95 0 95 -69 0 c-77 0 -81 4 -81 88
l0 42 75 0 75 0 0 60 0 60 -150 0 c-112 0 -152 3 -155 13 -2 6 -5 36 -8 65
l-4 52 158 0 159 0 0 55 0 55 200 0 200 0 0 -22z"/>
</g>
</svg>
