<?xml version="1.0" standalone="no"?>
<!DOCTYPE svg PUBLIC "-//W3C//DTD SVG 20010904//EN"
 "http://www.w3.org/TR/2001/REC-SVG-20010904/DTD/svg10.dtd">
<svg version="1.0" xmlns="http://www.w3.org/2000/svg"
 width="137.000000pt" height="137.000000pt" viewBox="0 0 137.000000 137.000000"
 preserveAspectRatio="xMidYMid meet">

<g transform="translate(0.000000,137.000000) scale(0.100000,-0.100000)"
fill="#000000" stroke="none">
<path d="M574 1288 l-75 -72 78 -78 c70 -70 81 -78 116 -78 54 0 97 -43 97
-97 0 -35 8 -46 73 -111 57 -57 79 -72 102 -72 44 0 91 -33 104 -73 30 -91
-81 -175 -158 -121 -29 21 -53 77 -46 107 5 18 -8 36 -65 92 l-70 69 0 -178 0
-178 30 -35 c64 -73 22 -173 -73 -173 -98 0 -141 107 -72 176 25 25 25 26 25
214 0 122 -4 190 -10 190 -19 0 -51 64 -48 98 2 28 -7 41 -72 107 l-75 75
-212 -212 c-207 -206 -213 -214 -213 -253 0 -39 6 -46 320 -360 308 -308 320
-319 356 -318 35 1 56 20 356 320 294 295 318 321 318 353 0 32 -24 58 -323
357 -381 382 -347 364 -463 251z"/>
</g>
</svg>
